<?xml version="1.0" standalone="no"?><!DOCTYPE svg PUBLIC "-//W3C//DTD SVG 1.1//EN" "http://www.w3.org/Graphics/SVG/1.1/DTD/svg11.dtd"><svg class="icon" width="200px" height="200.00px" viewBox="0 0 1024 1024" version="1.1" xmlns="http://www.w3.org/2000/svg"><path fill="#333333" d="M512 0q-92.614334 0-174.307167 34.948805t-142.416382 95.672355-95.672355 142.416382-34.948805 174.307167 34.948805 174.307167 95.672355 142.416382 142.416382 95.672355 174.307167 34.948805 174.307167-34.948805 142.416382-95.672355 95.672355-142.416382 34.948805-174.307167-34.948805-174.307167-95.672355-142.416382-142.416382-95.672355-174.307167-34.948805l0 0zM512 825.665529q-78.634812 0-147.221843-29.706485t-120.136519-81.255973-81.255973-120.136519-29.706485-147.221843 29.706485-147.221843 81.255973-120.136519 120.136519-81.255973 147.221843-29.706485 147.221843 29.706485 120.136519 81.255973 81.255973 120.136519 29.706485 147.221843-29.706485 147.221843-81.255973 120.136519-120.136519 81.255973-147.221843 29.706485l0 0zM532.095563 569.665529q-1.74744-1.74744-3.494881-2.62116t-3.494881-2.1843-3.931741-1.74744-3.931741-1.31058-3.931741-1.31058-4.805461-0.87372-4.805461-0.43686l-4.805461 0-4.368601 0t-4.805461 0.43686l-4.368601 0.87372t-4.805461 1.31058q-1.74744 0.87372-3.931741 1.31058t-4.368601 1.74744-3.931741 2.1843-2.62116 2.62116q-1.74744 0.87372-3.494881 2.62116t-2.62116 3.494881-2.1843 3.931741-2.1843 3.931741q-0.87372 2.62116-1.74744 4.805461t-1.31058 4.805461-0.43686 5.679181l0 6.552901 0 5.242321t0.43686 5.242321 1.31058 5.242321 1.74744 4.368601q0.87372 2.62116 2.1843 4.368601t2.1843 3.494881 2.62116 3.494881l3.494881 3.494881q0.87372 0.87372 2.62116 2.1843t3.931741 2.1843l4.368601 1.74744t3.931741 1.74744q2.62116 0.87372 4.805461 1.31058l4.368601 0.87372t4.805461 0.43686l4.368601 0 4.805461 0t4.805461-0.43686 4.805461-0.87372 3.931741-1.31058 3.931741-1.74744 3.931741-1.74744 3.494881-2.1843 3.494881-2.1843q1.74744-1.74744 3.05802-3.494881l2.62116-3.494881 2.62116-3.494881t2.1843-4.368601q0.87372-1.74744 1.74744-4.368601t1.31058-5.242321 0.43686-5.242321l0-5.242321 0-6.552901t-0.43686-5.679181-1.31058-4.805461-1.74744-4.805461q-0.87372-1.74744-2.1843-3.931741t-2.62116-3.931741l-2.62116-3.494881t-3.05802-2.62116l0 0zM595.877133 269.979522q-3.494881-3.494881-7.863481-6.116041t-9.174061-5.242321-9.610922-4.805461-10.921502-3.05802q-5.242321-1.74744-10.921502-3.05802t-12.232082-2.1843-13.105802-1.31058-12.668942-0.43686l-7.863481 0t-6.989761 0.43686-7.426621 0.87372-7.426621 1.31058q-4.368601 0.87372-7.863481 1.74744t-7.426621 1.74744-7.426621 1.74744-6.989761 2.62116q-4.368601 0.87372-7.863481 2.1843l-6.989761 2.62116-6.989761 2.62116t-6.989761 3.05802-6.552901 3.05802-6.116041 3.05802l-6.116041 3.494881t-6.552901 3.494881l27.959044 59.412969q5.242321-2.62116 10.921502-5.242321l11.358362-5.242321t10.921502-4.805461 11.358362-3.931741l10.484642-3.494881t10.047782-2.62116 9.610922-1.31058 9.174061-0.43686q5.242321 0 10.047782 0.43686t8.737201 1.74744 7.426621 3.05802 6.116041 4.368601 4.368601 5.679181 3.05802 6.116041 2.1843 6.552901 0.87372 6.989761q0 2.62116-0.43686 5.242321t-0.43686 4.805461-0.43686 3.931741-1.31058 3.494881q-0.87372 2.62116-1.31058 4.368601t-1.31058 3.494881-2.1843 3.494881-2.1843 3.494881-2.62116 3.494881-3.05802 3.494881-3.05802 3.494881l-3.494881 3.494881q-2.62116 1.74744-4.805461 3.494881t-4.368601 3.931741-4.805461 3.931741-5.242321 4.368601q-3.494881 2.62116-6.552901 5.242321t-5.679181 4.805461-5.242321 4.805461l-5.242321 5.242321q-1.74744 1.74744-3.931741 4.368601t-3.931741 5.242321-3.494881 4.805461-3.494881 4.805461q-0.87372 2.62116-2.1843 5.242321l-2.62116 5.242321t-2.1843 5.242321-1.74744 6.116041q-0.87372 2.62116-1.31058 5.679181l-0.87372 6.116041t-0.43686 6.116041l0 6.552901 0 20.095563 71.645051 0 0-16.600683 0-3.931741 0-3.931741t0.43686-3.494881 0.43686-3.494881q0.87372-0.87372 1.31058-2.62116l0.87372-3.494881t1.31058-3.05802 2.62116-3.05802q0.87372-0.87372 1.74744-2.62116t2.62116-3.05802 3.05802-3.05802 3.05802-3.494881 3.931741-3.494881l4.368601-3.494881t4.805461-3.931741 6.116041-4.805461 6.989761-5.679181 6.552901-5.679181l6.116041-5.242321t5.679181-6.116041q3.494881-2.62116 5.679181-5.242321t4.805461-5.242321 4.368601-5.679181 4.368601-5.679181q1.74744-2.62116 3.05802-5.679181t3.05802-6.116041 2.62116-6.116041 1.74744-6.552901l1.74744-6.989761t1.31058-7.426621l0.87372-7.863481t0.43686-8.300341q0-6.116041-0.43686-11.358362t-1.74744-10.484642-2.62116-10.047782-3.931741-9.174061q-1.74744-4.368601-4.368601-8.737201t-5.679181-8.300341-6.116041-7.426621-7.426621-6.116041l0 0z" /></svg>