<?xml version="1.0" standalone="no"?><!DOCTYPE svg PUBLIC "-//W3C//DTD SVG 1.1//EN" "http://www.w3.org/Graphics/SVG/1.1/DTD/svg11.dtd"><svg class="icon" width="200px" height="199.80px" viewBox="0 0 1025 1024" version="1.1" xmlns="http://www.w3.org/2000/svg"><path fill="#333333" d="M959.465169 912.977208c0-169.801249-98.746622-316.738695-242.883144-389.536096 46.337527-48.815071 75.084601-113.837019 75.084601-185.772755 0-151.301032-125.211613-273.959374-279.663556-273.959374-154.456037 0-279.664579 122.658341-279.664579 273.959374 0 71.934713 28.744003 136.956661 75.081531 185.772755C163.284523 596.238514 64.539948 743.176983 64.539948 912.977208c0 9.248062-0.576149 36.552204 0 45.66109l55.932507 0 783.059185 0 55.932507 0C960.041318 949.529412 959.465169 922.226293 959.465169 912.977208zM120.473478 902.705791c10.445387-144.667643 103.911496-284.130502 233.033349-340.250282 6.155482 4.170173 12.165648 8.532736 18.664977 12.220909l0-19.604417 0-57.767383c-3.163191 1.023355-6.432811 1.817479-9.567349 2.905306-45.462559-40.10427-74.331411-97.891097-74.331411-162.540543 0-121.04144 100.167039-219.164838 223.731049-219.164838 123.560941 0 223.731049 98.123398 223.731049 219.164838 0 64.649447-28.872946 122.437297-74.334481 162.540543-3.135561-1.087827-6.401087-1.88195-9.564279-2.905306l0 57.767383 0 19.604417c6.496259-3.689196 12.509495-8.051759 18.661907-12.220909 129.1239 56.119781 222.590008 195.582639 233.035396 340.250282L120.473478 902.705791z" /></svg>